<svg width="193" height="808" viewBox="0 0 193 808" fill="none" xmlns="http://www.w3.org/2000/svg">
<g opacity="0.7">
<path d="M691.022 682.54C595.488 780.78 509.406 812.05 425.782 797.976C342.104 783.894 260.757 724.394 174.752 640.757C88.7472 557.142 26.9995 477.498 10.5919 394.251C-5.80501 311.058 23.0605 224.137 118.616 125.897C214.382 27.3977 300.612 -4.01349 384.32 9.97867C468.082 23.9799 549.45 83.4582 635.434 167.074C721.417 250.689 783.133 330.366 799.461 413.704C815.78 496.989 786.788 584.062 691.022 682.54Z" stroke="url(#paint0_linear_495_3323)"/>
<path d="M691.022 682.54C595.488 780.78 509.406 812.05 425.782 797.976C342.104 783.894 260.757 724.394 174.752 640.757C88.7472 557.142 26.9995 477.498 10.5919 394.251C-5.80501 311.058 23.0605 224.137 118.616 125.897C214.382 27.3977 300.612 -4.01349 384.32 9.97867C468.082 23.9799 549.45 83.4582 635.434 167.074C721.417 250.689 783.133 330.366 799.461 413.704C815.78 496.989 786.788 584.062 691.022 682.54Z" stroke="url(#paint1_linear_495_3323)"/>
<path d="M334.913 23.6298L334.913 23.6298C273.766 23.8865 207.414 61.6173 132.02 139.102C56.7965 216.456 21.0589 283.664 22.5057 344.537C23.4846 385.645 41.4467 422.538 68.4709 457.842C95.4568 493.096 131.443 526.72 168.498 561.344L168.674 561.508C197.075 588.029 226.749 616.928 254.095 644.576L253.739 644.928L254.095 644.577C289.799 680.733 324.478 715.836 360.534 741.863C396.584 767.885 433.964 784.8 475.062 784.631C535.995 784.377 602.136 746.778 677.36 669.424C752.71 591.94 788.531 524.56 787.123 463.387C786.162 422.043 768.143 384.926 741.019 349.404C713.902 313.89 677.719 280.015 640.464 245.136L640.423 245.097L334.913 23.6298ZM334.913 23.6298C376.268 23.4362 413.873 40.412 450.139 66.5334C486.396 92.6491 521.268 127.871 557.173 164.138L557.214 164.18L558.973 165.957M334.913 23.6298L558.973 165.957M558.973 165.957C571.747 178.865 584.914 192.172 598.312 205.201M558.973 165.957L598.312 205.201M598.312 205.201C612.326 218.83 626.636 232.239 640.422 245.096L598.312 205.201Z" stroke="url(#paint2_linear_495_3323)"/>
<path d="M334.913 23.6298L334.913 23.6298C273.766 23.8865 207.414 61.6173 132.02 139.102C56.7965 216.456 21.0589 283.664 22.5057 344.537C23.4846 385.645 41.4467 422.538 68.4709 457.842C95.4568 493.096 131.443 526.72 168.498 561.344L168.674 561.508C197.075 588.029 226.749 616.928 254.095 644.576L253.739 644.928L254.095 644.577C289.799 680.733 324.478 715.836 360.534 741.863C396.584 767.885 433.964 784.8 475.062 784.631C535.995 784.377 602.136 746.778 677.36 669.424C752.71 591.94 788.531 524.56 787.123 463.387C786.162 422.043 768.143 384.926 741.019 349.404C713.902 313.89 677.719 280.015 640.464 245.136L640.423 245.097L334.913 23.6298ZM334.913 23.6298C376.268 23.4362 413.873 40.412 450.139 66.5334C486.396 92.6491 521.268 127.871 557.173 164.138L557.214 164.18L558.973 165.957M334.913 23.6298L558.973 165.957M558.973 165.957C571.747 178.865 584.914 192.172 598.312 205.201M558.973 165.957L598.312 205.201M598.312 205.201C612.326 218.83 626.636 232.239 640.422 245.096L598.312 205.201Z" stroke="url(#paint3_linear_495_3323)"/>
<path d="M485.732 155.636L486.125 155.327L485.732 155.636L485.884 155.83C509.139 185.434 533.204 216.07 561.235 243.329C589.266 270.588 620.562 293.789 650.804 316.208L651.002 316.355L651.051 316.392C682.344 339.609 711.458 361.21 733.358 384.391C755.262 407.576 769.906 432.299 772.297 461.74C774.38 487.487 766.58 516.281 748.582 548.587C730.584 580.892 702.407 616.678 663.785 656.393C625.227 696.043 590.327 725.143 558.637 743.98C526.947 762.818 498.499 771.375 472.833 769.988C440.377 768.228 413.294 751.371 387.439 726.228C366.561 705.926 346.543 680.263 325.189 652.871L324.795 653.179L325.189 652.871L325.082 652.734C301.681 622.772 277.468 591.773 249.159 564.243C221.024 536.841 189.482 513.593 159.011 491.135L158.442 490.716L158.146 491.118L158.442 490.715C127.154 467.676 98.0559 446.246 76.1686 423.229C54.289 400.22 39.6582 375.668 37.2492 346.399C35.1463 320.781 42.9054 292.105 60.8512 259.902C78.7966 227.699 106.911 191.999 145.469 152.35C184.112 112.613 219.097 83.4475 250.882 64.5606C282.667 45.6733 311.222 37.0829 337.017 38.4468L337.017 38.4468C366.535 39.9926 391.668 53.9305 415.455 75.1783C439.251 96.4336 461.656 124.963 485.732 155.636Z" stroke="url(#paint4_linear_495_3323)"/>
<path d="M485.732 155.636L486.125 155.327L485.732 155.636L485.884 155.83C509.139 185.434 533.204 216.07 561.235 243.329C589.266 270.588 620.562 293.789 650.804 316.208L651.002 316.355L651.051 316.392C682.344 339.609 711.458 361.21 733.358 384.391C755.262 407.576 769.906 432.299 772.297 461.74C774.38 487.487 766.58 516.281 748.582 548.587C730.584 580.892 702.407 616.678 663.785 656.393C625.227 696.043 590.327 725.143 558.637 743.98C526.947 762.818 498.499 771.375 472.833 769.988C440.377 768.228 413.294 751.371 387.439 726.228C366.561 705.926 346.543 680.263 325.189 652.871L324.795 653.179L325.189 652.871L325.082 652.734C301.681 622.772 277.468 591.773 249.159 564.243C221.024 536.841 189.482 513.593 159.011 491.135L158.442 490.716L158.146 491.118L158.442 490.715C127.154 467.676 98.0559 446.246 76.1686 423.229C54.289 400.22 39.6582 375.668 37.2492 346.399C35.1463 320.781 42.9054 292.105 60.8512 259.902C78.7966 227.699 106.911 191.999 145.469 152.35C184.112 112.613 219.097 83.4475 250.882 64.5606C282.667 45.6733 311.222 37.0829 337.017 38.4468L337.017 38.4468C366.535 39.9926 391.668 53.9305 415.455 75.1783C439.251 96.4336 461.656 124.963 485.732 155.636Z" stroke="url(#paint5_linear_495_3323)"/>
<path d="M444.605 164.396L444.605 164.397L444.779 164.717C467.203 206.008 490.436 248.79 524.116 281.542C557.84 314.337 601.391 336.439 643.479 357.794L643.614 357.862C672.425 372.479 699.207 386.067 719.732 401.57C740.283 417.093 754.491 434.485 758.196 456.674C761.81 478.321 754.848 504.417 736.935 535.425C719.026 566.426 690.207 602.276 650.212 643.404C610.301 684.445 575.365 714.178 544.982 732.884C514.592 751.596 488.817 759.239 467.207 756.208C445.073 753.101 427.43 739.361 411.484 719.234C395.544 699.116 381.353 672.684 366.094 644.263L366.06 644.2C343.619 602.381 320.347 559.034 286.406 526.027C252.464 493.02 208.484 470.967 166.055 449.702L165.989 449.669C137.155 435.21 110.337 421.762 89.7822 406.391C69.2174 391.013 54.991 373.76 51.2669 351.723C47.6336 330.205 54.5545 304.227 72.4104 273.326C90.2619 242.433 119.008 206.681 158.919 165.639C198.914 124.512 233.935 94.7031 264.418 75.936C294.909 57.1644 320.8 49.4762 342.561 52.4844C364.845 55.5688 382.638 69.286 398.733 89.3951C414.834 109.51 429.184 135.954 444.605 164.396Z" stroke="url(#paint6_linear_495_3323)"/>
<path d="M444.605 164.396L444.605 164.397L444.779 164.717C467.203 206.008 490.436 248.79 524.116 281.542C557.84 314.337 601.391 336.439 643.479 357.794L643.614 357.862C672.425 372.479 699.207 386.067 719.732 401.57C740.283 417.093 754.491 434.485 758.196 456.674C761.81 478.321 754.848 504.417 736.935 535.425C719.026 566.426 690.207 602.276 650.212 643.404C610.301 684.445 575.365 714.178 544.982 732.884C514.592 751.596 488.817 759.239 467.207 756.208C445.073 753.101 427.43 739.361 411.484 719.234C395.544 699.116 381.353 672.684 366.094 644.263L366.06 644.2C343.619 602.381 320.347 559.034 286.406 526.027C252.464 493.02 208.484 470.967 166.055 449.702L165.989 449.669C137.155 435.21 110.337 421.762 89.7822 406.391C69.2174 391.013 54.991 373.76 51.2669 351.723C47.6336 330.205 54.5545 304.227 72.4104 273.326C90.2619 242.433 119.008 206.681 158.919 165.639C198.914 124.512 233.935 94.7031 264.418 75.936C294.909 57.1644 320.8 49.4762 342.561 52.4844C364.845 55.5688 382.638 69.286 398.733 89.3951C414.834 109.51 429.184 135.954 444.605 164.396Z" stroke="url(#paint7_linear_495_3323)"/>
<path d="M438.802 730.645L438.802 730.645C428.445 720.593 420.147 705.628 412.806 687.935C405.511 670.357 399.181 650.138 392.705 629.456L392.584 629.07L392.487 628.759C384.702 603.89 376.399 577.366 365.614 552.737C354.784 528.005 341.438 505.149 323.567 487.77C305.718 470.391 282.498 457.677 257.473 447.537C232.448 437.396 205.585 429.816 180.439 422.724L180.215 422.661C152.79 414.913 126.182 407.395 105.25 397.48C84.25 387.532 69.0943 375.231 64.4812 357.995C59.7056 340.127 66.0204 316.562 83.9169 286.8C101.801 257.059 131.189 221.232 172.368 178.886C213.653 136.454 248.762 105.99 278.115 87.2173C307.487 68.4312 330.994 61.416 349.118 65.6897L349.119 65.6897C366.584 69.798 379.431 84.562 390.099 105.225C400.753 125.862 409.17 152.256 417.848 179.465L417.868 179.529C433.608 228.949 451.494 285.102 487.039 319.669C504.801 336.963 527.849 349.679 552.671 359.865C577.489 370.049 604.113 377.717 629.043 384.897L629.055 384.901L629.055 384.901L629.249 384.957C656.623 392.858 683.19 400.527 704.09 410.585C725.048 420.672 740.175 433.101 744.77 450.446L744.77 450.446C749.548 468.465 743.202 492.159 725.249 522.039C707.307 551.898 677.836 587.834 636.551 630.288C595.372 672.633 560.379 703.02 531.149 721.733C501.898 740.458 478.52 747.428 460.525 743.132C452.342 741.176 445.17 736.837 438.802 730.645Z" stroke="url(#paint8_linear_495_3323)"/>
<path d="M438.802 730.645L438.802 730.645C428.445 720.593 420.147 705.628 412.806 687.935C405.511 670.357 399.181 650.138 392.705 629.456L392.584 629.07L392.487 628.759C384.702 603.89 376.399 577.366 365.614 552.737C354.784 528.005 341.438 505.149 323.567 487.77C305.718 470.391 282.498 457.677 257.473 447.537C232.448 437.396 205.585 429.816 180.439 422.724L180.215 422.661C152.79 414.913 126.182 407.395 105.25 397.48C84.25 387.532 69.0943 375.231 64.4812 357.995C59.7056 340.127 66.0204 316.562 83.9169 286.8C101.801 257.059 131.189 221.232 172.368 178.886C213.653 136.454 248.762 105.99 278.115 87.2173C307.487 68.4312 330.994 61.416 349.118 65.6897L349.119 65.6897C366.584 69.798 379.431 84.562 390.099 105.225C400.753 125.862 409.17 152.256 417.848 179.465L417.868 179.529C433.608 228.949 451.494 285.102 487.039 319.669C504.801 336.963 527.849 349.679 552.671 359.865C577.489 370.049 604.113 377.717 629.043 384.897L629.055 384.901L629.055 384.901L629.249 384.957C656.623 392.858 683.19 400.527 704.09 410.585C725.048 420.672 740.175 433.101 744.77 450.446L744.77 450.446C749.548 468.465 743.202 492.159 725.249 522.039C707.307 551.898 677.836 587.834 636.551 630.288C595.372 672.633 560.379 703.02 531.149 721.733C501.898 740.458 478.52 747.428 460.525 743.132C452.342 741.176 445.17 736.837 438.802 730.645Z" stroke="url(#paint9_linear_495_3323)"/>
<path d="M442.004 723.926L442.004 723.926C432.488 714.692 426.295 698.531 421.754 678.49C417.219 658.468 414.354 634.682 411.424 610.285C407.845 580.668 404.02 549.037 396.692 520.536C389.366 492.04 378.522 466.605 360.856 449.426L360.856 449.426C343.191 432.269 317.464 422.139 288.775 415.606C260.08 409.071 228.354 406.12 198.65 403.369C169.912 400.71 142.021 398.118 120.007 392.65C97.9535 387.173 82.0179 378.859 76.8886 364.924L76.4194 365.097L76.8885 364.924C74.1807 357.586 74.3217 348.557 77.4156 337.747C80.5092 326.937 86.545 314.383 95.5749 300.028C113.635 271.318 143.623 235.48 185.817 192.091C228.138 148.573 263.252 117.497 291.574 98.577C305.734 89.1169 318.179 82.708 328.962 79.2968C339.746 75.8854 348.832 75.4832 356.307 77.9849C370.467 82.7231 379.328 98.3792 385.546 120.198C391.741 141.937 395.257 169.58 398.88 198.064L398.901 198.232L398.927 198.436C402.644 227.713 406.613 258.974 414.017 287.173C421.437 315.431 432.321 340.682 449.92 357.797C467.498 374.912 493.033 385.088 521.488 391.715C549.892 398.331 581.275 401.426 610.674 404.325L610.847 404.342C639.502 407.174 667.299 409.927 689.24 415.535C711.219 421.152 727.106 429.583 732.238 443.605C734.947 451.007 734.799 460.102 731.69 470.977C728.581 481.851 722.522 494.469 713.461 508.889C695.338 537.727 665.255 573.695 622.935 617.214C580.741 660.603 545.754 691.58 517.56 710.434C503.462 719.862 491.082 726.245 480.363 729.64C469.643 733.034 460.621 733.427 453.211 730.925C449.033 729.513 445.34 727.17 442.004 723.926Z" stroke="url(#paint10_linear_495_3323)"/>
<path d="M442.004 723.926L442.004 723.926C432.488 714.692 426.295 698.531 421.754 678.49C417.219 658.468 414.354 634.682 411.424 610.285C407.845 580.668 404.02 549.037 396.692 520.536C389.366 492.04 378.522 466.605 360.856 449.426L360.856 449.426C343.191 432.269 317.464 422.139 288.775 415.606C260.08 409.071 228.354 406.12 198.65 403.369C169.912 400.71 142.021 398.118 120.007 392.65C97.9535 387.173 82.0179 378.859 76.8886 364.924L76.4194 365.097L76.8885 364.924C74.1807 357.586 74.3217 348.557 77.4156 337.747C80.5092 326.937 86.545 314.383 95.5749 300.028C113.635 271.318 143.623 235.48 185.817 192.091C228.138 148.573 263.252 117.497 291.574 98.577C305.734 89.1169 318.179 82.708 328.962 79.2968C339.746 75.8854 348.832 75.4832 356.307 77.9849C370.467 82.7231 379.328 98.3792 385.546 120.198C391.741 141.937 395.257 169.58 398.88 198.064L398.901 198.232L398.927 198.436C402.644 227.713 406.613 258.974 414.017 287.173C421.437 315.431 432.321 340.682 449.92 357.797C467.498 374.912 493.033 385.088 521.488 391.715C549.892 398.331 581.275 401.426 610.674 404.325L610.847 404.342C639.502 407.174 667.299 409.927 689.24 415.535C711.219 421.152 727.106 429.583 732.238 443.605C734.947 451.007 734.799 460.102 731.69 470.977C728.581 481.851 722.522 494.469 713.461 508.889C695.338 537.727 665.255 573.695 622.935 617.214C580.741 660.603 545.754 691.58 517.56 710.434C503.462 719.862 491.082 726.245 480.363 729.64C469.643 733.034 460.621 733.427 453.211 730.925C449.033 729.513 445.34 727.17 442.004 723.926Z" stroke="url(#paint11_linear_495_3323)"/>
<path d="M439.193 715.666L439.193 715.666C434.808 711.412 431.616 704.773 429.345 696.3C427.075 687.835 425.738 677.589 425.026 666.175C423.602 643.346 424.682 615.921 425.759 588.858L425.26 588.838L425.759 588.857L425.76 588.848C427.166 553.242 428.598 516.98 425.509 485.569C422.421 454.172 414.807 427.498 398.017 411.171C381.249 394.864 354.373 387.998 322.897 385.782C291.403 383.566 255.182 386 219.626 388.4L219.166 388.43C189.659 390.397 159.745 392.391 135.799 390.94C123.763 390.211 113.269 388.613 105.106 385.721C96.9404 382.827 91.1816 378.665 88.4937 372.855C85.7573 366.941 85.9416 358.991 89.1634 348.958C92.3826 338.934 98.6117 326.901 107.857 312.879C126.345 284.838 156.838 248.925 199.223 205.341C241.755 161.604 276.94 130.011 304.587 110.681C318.412 101.016 330.331 94.4305 340.326 90.9212C350.329 87.4091 358.336 87.0014 364.39 89.5822C370.306 92.1075 374.672 97.7334 377.846 105.786C381.019 113.834 382.972 124.238 384.106 136.196C386.367 160.058 385.355 189.978 384.357 219.459L384.35 219.665L384.346 219.77C383.151 255.043 381.934 290.954 385.161 322.084C388.39 353.228 396.077 379.706 412.801 395.969C429.524 412.232 456.206 419.177 487.429 421.535C518.636 423.892 554.499 421.673 589.725 419.493L589.831 419.487C619.339 417.662 649.303 415.813 673.273 417.422C685.259 418.227 695.713 419.894 703.847 422.845C711.985 425.797 717.73 430.007 720.42 435.851C723.169 441.83 722.985 449.845 719.753 459.942C716.524 470.031 710.275 482.13 700.998 496.219C682.448 524.395 651.85 560.448 609.317 604.185C566.933 647.769 531.885 679.253 504.371 698.517C490.613 708.15 478.759 714.713 468.828 718.21C458.889 721.711 450.948 722.117 444.959 719.547L444.954 719.544C442.825 718.661 440.933 717.358 439.193 715.666Z" stroke="url(#paint12_linear_495_3323)"/>
<path d="M439.193 715.666L439.193 715.666C434.808 711.412 431.616 704.773 429.345 696.3C427.075 687.835 425.738 677.589 425.026 666.175C423.602 643.346 424.682 615.921 425.759 588.858L425.26 588.838L425.759 588.857L425.76 588.848C427.166 553.242 428.598 516.98 425.509 485.569C422.421 454.172 414.807 427.498 398.017 411.171C381.249 394.864 354.373 387.998 322.897 385.782C291.403 383.566 255.182 386 219.626 388.4L219.166 388.43C189.659 390.397 159.745 392.391 135.799 390.94C123.763 390.211 113.269 388.613 105.106 385.721C96.9404 382.827 91.1816 378.665 88.4937 372.855C85.7573 366.941 85.9416 358.991 89.1634 348.958C92.3826 338.934 98.6117 326.901 107.857 312.879C126.345 284.838 156.838 248.925 199.223 205.341C241.755 161.604 276.94 130.011 304.587 110.681C318.412 101.016 330.331 94.4305 340.326 90.9212C350.329 87.4091 358.336 87.0014 364.39 89.5822C370.306 92.1075 374.672 97.7334 377.846 105.786C381.019 113.834 382.972 124.238 384.106 136.196C386.367 160.058 385.355 189.978 384.357 219.459L384.35 219.665L384.346 219.77C383.151 255.043 381.934 290.954 385.161 322.084C388.39 353.228 396.077 379.706 412.801 395.969C429.524 412.232 456.206 419.177 487.429 421.535C518.636 423.892 554.499 421.673 589.725 419.493L589.831 419.487C619.339 417.662 649.303 415.813 673.273 417.422C685.259 418.227 695.713 419.894 703.847 422.845C711.985 425.797 717.73 430.007 720.42 435.851C723.169 441.83 722.985 449.845 719.753 459.942C716.524 470.031 710.275 482.13 700.998 496.219C682.448 524.395 651.85 560.448 609.317 604.185C566.933 647.769 531.885 679.253 504.371 698.517C490.613 708.15 478.759 714.713 468.828 718.21C458.889 721.711 450.948 722.117 444.959 719.547L444.954 719.544C442.825 718.661 440.933 717.358 439.193 715.666Z" stroke="url(#paint13_linear_495_3323)"/>
</g>
<circle cx="122.002" cy="293.042" r="4.17256" fill="#653E7C"/>
<defs>
<linearGradient id="paint0_linear_495_3323" x1="668.972" y1="658.649" x2="141.986" y2="142.2" gradientUnits="userSpaceOnUse">
<stop stop-color="#D84594"/>
<stop offset="1" stop-color="#574EA0"/>
</linearGradient>
<linearGradient id="paint1_linear_495_3323" x1="802.681" y1="343.284" x2="-95.0077" y2="512.059" gradientUnits="userSpaceOnUse">
<stop stop-color="#AEE7FF"/>
<stop offset="1" stop-color="#574EA0" stop-opacity="0"/>
</linearGradient>
<linearGradient id="paint2_linear_495_3323" x1="657.829" y1="648.22" x2="152.7" y2="153.202" gradientUnits="userSpaceOnUse">
<stop stop-color="#D84594"/>
<stop offset="1" stop-color="#574EA0"/>
</linearGradient>
<linearGradient id="paint3_linear_495_3323" x1="785.989" y1="345.935" x2="-74.4495" y2="507.704" gradientUnits="userSpaceOnUse">
<stop stop-color="#AEE7FF"/>
<stop offset="1" stop-color="#574EA0" stop-opacity="0"/>
</linearGradient>
<linearGradient id="paint4_linear_495_3323" x1="648.154" y1="639.018" x2="162.252" y2="162.843" gradientUnits="userSpaceOnUse">
<stop stop-color="#D84594"/>
<stop offset="1" stop-color="#574EA0"/>
</linearGradient>
<linearGradient id="paint5_linear_495_3323" x1="771.436" y1="348.24" x2="-56.2511" y2="503.851" gradientUnits="userSpaceOnUse">
<stop stop-color="#AEE7FF"/>
<stop offset="1" stop-color="#574EA0" stop-opacity="0"/>
</linearGradient>
<linearGradient id="paint6_linear_495_3323" x1="639.211" y1="630.564" x2="171.077" y2="171.8" gradientUnits="userSpaceOnUse">
<stop stop-color="#D84594"/>
<stop offset="1" stop-color="#574EA0"/>
</linearGradient>
<linearGradient id="paint7_linear_495_3323" x1="757.985" y1="350.419" x2="-39.4369" y2="500.34" gradientUnits="userSpaceOnUse">
<stop stop-color="#AEE7FF"/>
<stop offset="1" stop-color="#574EA0" stop-opacity="0"/>
</linearGradient>
<linearGradient id="paint8_linear_495_3323" x1="630.736" y1="622.557" x2="179.313" y2="180.175" gradientUnits="userSpaceOnUse">
<stop stop-color="#D84594"/>
<stop offset="1" stop-color="#574EA0"/>
</linearGradient>
<linearGradient id="paint9_linear_495_3323" x1="745.269" y1="352.411" x2="-23.6789" y2="496.977" gradientUnits="userSpaceOnUse">
<stop stop-color="#AEE7FF"/>
<stop offset="1" stop-color="#574EA0" stop-opacity="0"/>
</linearGradient>
<linearGradient id="paint10_linear_495_3323" x1="629.571" y1="614.854" x2="193.971" y2="182.643" gradientUnits="userSpaceOnUse">
<stop stop-color="#D84594"/>
<stop offset="1" stop-color="#574EA0"/>
</linearGradient>
<linearGradient id="paint11_linear_495_3323" x1="741.516" y1="354.158" x2="-9.17771" y2="496.929" gradientUnits="userSpaceOnUse">
<stop stop-color="#AEE7FF"/>
<stop offset="1" stop-color="#574EA0" stop-opacity="0"/>
</linearGradient>
<linearGradient id="paint12_linear_495_3323" x1="621.553" y1="607.563" x2="201.263" y2="190.551" gradientUnits="userSpaceOnUse">
<stop stop-color="#D84594"/>
<stop offset="1" stop-color="#574EA0"/>
</linearGradient>
<linearGradient id="paint13_linear_495_3323" x1="729.561" y1="356.029" x2="5.26586" y2="493.777" gradientUnits="userSpaceOnUse">
<stop stop-color="#AEE7FF"/>
<stop offset="1" stop-color="#574EA0" stop-opacity="0"/>
</linearGradient>
</defs>
</svg>
