<svg width="88" height="88" viewBox="0 0 88 88" fill="none" xmlns="http://www.w3.org/2000/svg">
<path d="M17.044 70.9108L17.0442 70.911C22.2765 76.1403 26.6563 79.9149 30.2213 82.2246C32.0039 83.3795 33.6198 84.1926 35.0656 84.628C36.5098 85.063 37.8577 85.1425 39.0433 84.7276C41.3113 83.9352 42.4779 81.5046 43.2005 78.8316C43.9399 76.0965 44.3274 72.6569 44.7141 69.2243L44.7199 69.1725L43.7262 69.0606L44.7199 69.1725C45.1237 65.5876 45.547 61.8455 46.3809 58.4802C47.2176 55.1039 48.4371 52.2438 50.3409 50.3399C52.2447 48.436 55.1048 47.2165 58.481 46.3798C61.8462 45.5458 65.5881 45.1225 69.173 44.7187L69.1731 44.7187L69.2027 44.7154C72.6397 44.3278 76.0879 43.939 78.8295 43.1975C81.5023 42.4746 83.9348 41.3086 84.7275 39.0438L84.7275 39.0437C85.1425 37.8577 85.0632 36.5095 84.6281 35.065C84.1926 33.6191 83.3794 32.0034 82.2245 30.2211C79.9147 26.6567 76.1398 22.2784 70.91 17.0485C65.6962 11.8339 61.3337 8.0708 57.7853 5.76817C56.011 4.61683 54.4032 3.80602 52.9653 3.37155C51.5289 2.93753 50.1876 2.85744 49.0084 3.27167L49.0071 3.27213C46.7472 4.0694 45.5987 6.51335 44.8937 9.19127C44.1718 11.9332 43.8032 15.3802 43.4355 18.8181L43.4294 18.8751C43.0429 22.4914 42.6374 26.2664 41.8145 29.659C40.9888 33.0631 39.7732 35.9427 37.8614 37.8533C35.9495 39.7642 33.0698 40.9789 29.666 41.8045C26.2736 42.6274 22.4993 43.0335 18.8828 43.422L18.882 43.4221L18.7778 43.4333C15.8645 43.7487 12.9546 44.0636 10.4825 44.5893C8.02513 45.1119 5.7817 45.8825 4.40709 47.2537C2.57122 49.035 2.50485 51.4003 3.23958 53.7026C3.96852 55.9867 5.535 58.4175 7.31366 60.6834C10.1879 64.3449 13.809 67.8062 15.8677 69.774C16.3594 70.244 16.762 70.6288 17.044 70.9108Z" stroke="#574EA0" stroke-width="2"/>
</svg>
