<svg xmlns="http://www.w3.org/2000/svg" width="640" height="640" viewBox="0 0 640 640" version="1.1"><path d="M 296 5.592 C 286.134 6.440, 272.207 8.146, 267 9.145 C 230.007 16.240, 206.194 24.167, 176.741 39.194 C 162.775 46.319, 137.891 61.812, 129.987 68.303 C 128.516 69.511, 125.562 71.850, 123.421 73.500 C 110.457 83.495, 87.513 106.261, 75.959 120.593 C 45.296 158.630, 24.226 202.171, 13.575 249.508 C -0.031 309.984, 5.026 374.158, 27.956 432 C 33.268 445.400, 40.347 459.904, 41.290 459.320 C 41.892 458.949, 42.001 459.190, 41.557 459.909 C 40.605 461.448, 43.876 465.187, 45.384 464.284 C 45.998 463.917, 45.861 464.403, 45.081 465.364 C 43.855 466.874, 43.855 467.071, 45.081 466.806 C 45.914 466.626, 46.443 467.218, 46.363 468.239 C 46.288 469.196, 46.625 469.732, 47.113 469.430 C 47.601 469.129, 48 469.292, 48 469.793 C 48 470.294, 49.268 472.030, 50.817 473.651 C 52.366 475.272, 53.459 477.122, 53.246 477.762 C 53.032 478.403, 54.019 479.218, 55.438 479.574 C 57.010 479.968, 58.248 481.139, 58.607 482.570 C 58.931 483.861, 59.822 485.437, 60.587 486.072 C 61.352 486.707, 61.688 487.695, 61.334 488.268 C 60.981 488.840, 61.150 489.026, 61.710 488.679 C 62.271 488.333, 65.758 491.638, 69.459 496.025 C 75.578 503.275, 77.004 504.460, 79.214 504.130 C 79.607 504.072, 79.648 504.806, 79.305 505.762 C 78.962 506.718, 79.032 507.184, 79.460 506.798 C 79.888 506.411, 80.896 506.753, 81.700 507.557 C 82.504 508.361, 83.575 508.763, 84.081 508.450 C 84.586 508.138, 85.563 508.235, 86.250 508.666 C 88.254 509.922, 92 510.162, 92 509.034 C 92 508.465, 92.450 508, 93 508 C 93.550 508, 94 508.900, 94 510 C 94 511.100, 94.450 512, 95 512 C 95.550 512, 96 511.075, 96 509.943 C 96 507.940, 96.076 507.932, 98.946 509.627 C 100.566 510.584, 101.664 511.734, 101.387 512.183 C 101.109 512.633, 101.407 513, 102.049 513 C 102.692 513, 105.098 515.048, 107.396 517.552 C 109.695 520.056, 112.513 522.643, 113.658 523.302 C 115.771 524.518, 129.898 536.049, 133.197 539.250 C 134.189 540.212, 135.237 541, 135.527 541 C 135.817 541, 139.529 543.632, 143.777 546.850 C 148.025 550.067, 152.850 553.544, 154.500 554.577 C 156.150 555.609, 157.725 556.689, 158 556.977 C 158.275 557.265, 159.695 558.175, 161.157 559 C 162.618 559.825, 166.893 562.360, 170.657 564.632 C 201.783 583.427, 239.482 596.587, 279.500 602.628 C 294.578 604.904, 341.370 605.248, 355.500 603.187 C 390.797 598.039, 423.667 587.903, 451 573.736 C 468.540 564.645, 470.407 563.584, 473 561.239 C 474.375 559.995, 476.400 558.698, 477.500 558.357 C 478.600 558.015, 483.170 555.095, 487.656 551.868 C 492.141 548.640, 496.138 546, 496.538 546 C 496.938 546, 497.993 545.208, 498.883 544.239 C 499.772 543.270, 502.300 541.149, 504.500 539.525 C 506.700 537.901, 509.006 536.106, 509.624 535.536 C 510.242 534.966, 512.917 532.700, 515.568 530.500 C 518.219 528.300, 522.101 524.813, 524.194 522.750 C 526.287 520.688, 528.284 519, 528.632 519 C 528.979 519, 530.749 517.425, 532.565 515.500 C 534.380 513.575, 536.555 512, 537.398 512 C 538.240 512, 539.417 511.089, 540.013 509.976 C 540.980 508.168, 541.257 508.114, 542.612 509.469 C 543.445 510.302, 543.917 511.326, 543.659 511.742 C 543.069 512.697, 548.247 512.583, 549.827 511.607 C 550.472 511.208, 551.480 511.179, 552.067 511.542 C 552.655 511.905, 553.381 511.257, 553.684 510.101 C 553.986 508.945, 554.672 508, 555.209 508 C 556.703 508, 561.013 504.346, 560.327 503.661 C 559.995 503.328, 560.897 502.609, 562.333 502.063 C 563.845 501.489, 565.212 500.003, 565.580 498.535 C 566.294 495.693, 566.985 495.429, 568.947 497.250 C 569.995 498.223, 570.139 498.226, 569.595 497.262 C 569.177 496.521, 570.758 494.035, 573.539 491.062 C 576.507 487.888, 577.910 485.632, 577.430 484.800 C 577.017 484.085, 577.045 483.831, 577.491 484.234 C 577.937 484.638, 578.946 484.188, 579.733 483.234 C 581.083 481.597, 581.131 481.601, 580.593 483.302 C 580.239 484.422, 580.423 484.857, 581.080 484.451 C 581.661 484.092, 581.909 483.205, 581.631 482.481 C 581.353 481.757, 582.559 479.665, 584.311 477.832 C 586.062 476, 587.380 474.275, 587.239 474 C 587.099 473.725, 587.662 472.707, 588.492 471.739 C 589.321 470.770, 590 469.725, 590 469.417 C 590 468.322, 592.772 466.106, 593.381 466.714 C 593.721 467.055, 594 466.381, 594 465.216 C 594 464.052, 594.788 462.641, 595.750 462.080 C 596.712 461.519, 597.050 461.040, 596.500 461.015 C 595.933 460.989, 595.986 460.652, 596.623 460.235 C 598.063 459.292, 603.757 447.925, 608.314 436.896 C 624.301 398.205, 632.015 359.187, 631.989 317.143 C 631.929 218.588, 586.503 127.708, 507.329 67.749 C 464.927 35.638, 414.999 15.197, 360 7.431 C 349.983 6.017, 305.823 4.748, 296 5.592 M 292 43.105 C 250.742 47.766, 217.532 58.459, 180.500 79.005 C 174.716 82.215, 158.584 92.733, 155.163 95.526 C 154.248 96.273, 149.675 99.909, 145 103.606 C 132.544 113.458, 109.719 136.869, 100.256 149.500 C 95.723 155.550, 91.662 160.950, 91.232 161.500 C 90.801 162.050, 87.916 166.550, 84.820 171.500 C 61.696 208.472, 47.845 249.374, 43.865 292.439 C 42.267 309.730, 43.328 345.318, 45.895 360.525 C 55.927 419.964, 80.344 468.549, 121.454 510.873 C 166.555 557.306, 224.825 585.606, 290.500 592.974 C 301.983 594.262, 334.642 594.263, 347 592.976 C 397.631 587.701, 444.109 569.415, 485.816 538.360 C 501.113 526.970, 527.752 500.317, 539.331 484.816 C 567.343 447.319, 584.105 408.045, 592.176 361 C 594.237 348.986, 594.490 344.307, 594.478 318.500 C 594.464 289.003, 594.057 284.158, 589.862 263.500 C 580.776 218.752, 562.964 180.935, 533.579 144 C 526.660 135.303, 503.841 111.974, 497.698 107.317 C 495.389 105.566, 492.600 103.304, 491.500 102.290 C 490.400 101.275, 487.925 99.355, 486 98.021 C 484.075 96.687, 482.275 95.313, 482 94.968 C 481.725 94.622, 478.125 92.081, 474 89.320 C 426.426 57.487, 374.390 41.802, 317.500 42.149 C 307.600 42.209, 296.125 42.639, 292 43.105 M 308 195.629 C 279.086 197.380, 250.838 203.123, 229.370 211.615 C 205.917 220.891, 191.895 229.812, 177 244.930 C 162.187 259.965, 154.714 273.462, 151.292 291.360 C 149.652 299.937, 150.304 308.231, 153.466 319 C 156.702 330.027, 163.313 343.097, 169.651 351 C 177.801 361.162, 197.297 378, 200.913 378 C 201.511 378, 202 378.380, 202 378.844 C 202 379.915, 221.568 389.140, 229.500 391.808 C 250 398.704, 272.732 401.479, 302 400.659 C 318.373 400.201, 324.815 399.591, 334 397.632 C 372.665 389.386, 394.833 374.321, 399.097 353.394 C 401.747 340.385, 396.585 325.391, 386.184 315.885 C 372.734 303.593, 353.493 298.004, 324.616 298.001 C 307.710 298, 302.848 297.151, 298.541 293.451 C 290.575 286.606, 295.980 275.035, 309.254 270.515 C 316.190 268.154, 342.236 267.286, 355.776 268.966 C 398.588 274.276, 425.953 291.775, 436.770 320.758 C 439.859 329.035, 441.024 347.814, 439.012 356.888 C 432.372 386.827, 402.904 410.354, 359.316 420.515 C 345.125 423.823, 331.900 425.145, 307.474 425.698 C 280.853 426.300, 264.766 425.347, 245.517 422.027 C 233.850 420.015, 229.634 420.040, 239.903 422.061 C 243.815 422.830, 246 423.751, 246 424.630 C 246 425.384, 245.438 426.007, 244.750 426.015 C 243.917 426.026, 244 426.354, 245 427 C 246.160 427.750, 245.820 427.992, 243.500 428.071 L 240.500 428.172 243.500 429.118 C 248.987 430.848, 267.367 434.045, 277.500 435.033 C 293.873 436.629, 338.720 436.344, 352.276 434.558 C 382.623 430.560, 408.735 422.885, 429.688 411.805 C 471.270 389.818, 494.338 353.452, 487.648 320.436 C 482.576 295.402, 467.343 273.674, 443.648 257.673 C 420.066 241.749, 390.269 232.971, 354.500 231.410 C 300.632 229.060, 255.963 244.500, 243.323 269.841 C 240.740 275.019, 240.500 276.434, 240.500 286.500 C 240.500 296.521, 240.757 298.057, 243.393 303.763 C 247.060 311.705, 256.912 321.227, 266.021 325.635 C 280.457 332.621, 293.084 334.997, 315.822 335.006 C 332.764 335.012, 337.142 335.942, 341.703 340.503 C 348.888 347.688, 343.711 358.181, 330.781 362.640 C 323.243 365.240, 288.620 365.255, 275.500 362.665 C 236.802 355.023, 213.768 338.179, 203.859 310.275 C 200.919 301.998, 200.171 283.775, 202.409 275 C 211.079 241.015, 245.686 216.831, 296.093 209.530 C 325.571 205.261, 372.857 206.157, 398.378 211.468 C 427.431 217.514, 454.694 228.272, 470.964 240.111 L 476.500 244.139 471.095 238.991 C 459.157 227.621, 435.664 214.426, 415.801 207.935 C 398.415 202.254, 390.233 200.418, 369 197.435 C 358.664 195.982, 320.708 194.859, 308 195.629 M 268 397 C 268 397.550, 268.900 398, 270 398 C 271.100 398, 272 397.550, 272 397 C 272 396.450, 271.100 396, 270 396 C 268.900 396, 268 396.450, 268 397" stroke="none" fill="#28c4de" fill-rule="evenodd"/><path d="M 296 5.592 C 286.134 6.440, 272.207 8.146, 267 9.145 C 230.007 16.240, 206.194 24.167, 176.741 39.194 C 162.775 46.319, 137.891 61.812, 129.987 68.303 C 128.516 69.511, 125.562 71.850, 123.421 73.500 C 110.457 83.495, 87.513 106.261, 75.959 120.593 C 45.296 158.630, 24.226 202.171, 13.575 249.508 C -0.031 309.984, 5.026 374.158, 27.956 432 C 33.268 445.400, 40.347 459.904, 41.290 459.320 C 41.892 458.949, 42.001 459.190, 41.557 459.909 C 40.605 461.448, 43.876 465.187, 45.384 464.284 C 45.998 463.917, 45.861 464.403, 45.081 465.364 C 43.855 466.874, 43.855 467.071, 45.081 466.806 C 45.914 466.626, 46.443 467.218, 46.363 468.239 C 46.288 469.196, 46.625 469.732, 47.113 469.430 C 47.601 469.129, 48 469.292, 48 469.793 C 48 470.294, 49.268 472.030, 50.817 473.651 C 52.366 475.272, 53.459 477.122, 53.246 477.762 C 53.032 478.403, 54.019 479.218, 55.438 479.574 C 57.010 479.968, 58.248 481.139, 58.607 482.570 C 58.931 483.861, 59.822 485.437, 60.587 486.072 C 61.352 486.707, 61.688 487.695, 61.334 488.268 C 60.981 488.840, 61.150 489.026, 61.710 488.679 C 62.271 488.333, 65.758 491.638, 69.459 496.025 C 75.578 503.275, 77.004 504.460, 79.214 504.130 C 79.607 504.072, 79.648 504.806, 79.305 505.762 C 78.962 506.718, 79.032 507.184, 79.460 506.798 C 79.888 506.411, 80.896 506.753, 81.700 507.557 C 82.504 508.361, 83.575 508.763, 84.081 508.450 C 84.586 508.138, 85.563 508.235, 86.250 508.666 C 88.254 509.922, 92 510.162, 92 509.034 C 92 508.465, 92.450 508, 93 508 C 93.550 508, 94 508.900, 94 510 C 94 511.100, 94.450 512, 95 512 C 95.550 512, 96 511.075, 96 509.943 C 96 507.940, 96.076 507.932, 98.946 509.627 C 100.566 510.584, 101.664 511.734, 101.387 512.183 C 101.109 512.633, 101.407 513, 102.049 513 C 102.692 513, 105.098 515.048, 107.396 517.552 C 109.695 520.056, 112.513 522.643, 113.658 523.302 C 115.771 524.518, 129.898 536.049, 133.197 539.250 C 134.189 540.212, 135.237 541, 135.527 541 C 135.817 541, 139.529 543.632, 143.777 546.850 C 148.025 550.067, 152.850 553.544, 154.500 554.577 C 156.150 555.609, 157.725 556.689, 158 556.977 C 158.275 557.265, 159.695 558.175, 161.157 559 C 162.618 559.825, 166.893 562.360, 170.657 564.632 C 201.783 583.427, 239.482 596.587, 279.500 602.628 C 294.578 604.904, 341.370 605.248, 355.500 603.187 C 390.797 598.039, 423.667 587.903, 451 573.736 C 468.540 564.645, 470.407 563.584, 473 561.239 C 474.375 559.995, 476.400 558.698, 477.500 558.357 C 478.600 558.015, 483.170 555.095, 487.656 551.868 C 492.141 548.640, 496.138 546, 496.538 546 C 496.938 546, 497.993 545.208, 498.883 544.239 C 499.772 543.270, 502.300 541.149, 504.500 539.525 C 506.700 537.901, 509.006 536.106, 509.624 535.536 C 510.242 534.966, 512.917 532.700, 515.568 530.500 C 518.219 528.300, 522.101 524.813, 524.194 522.750 C 526.287 520.688, 528.284 519, 528.632 519 C 528.979 519, 530.749 517.425, 532.565 515.500 C 534.380 513.575, 536.555 512, 537.398 512 C 538.240 512, 539.417 511.089, 540.013 509.976 C 540.980 508.168, 541.257 508.114, 542.612 509.469 C 543.445 510.302, 543.917 511.326, 543.659 511.742 C 543.069 512.697, 548.247 512.583, 549.827 511.607 C 550.472 511.208, 551.480 511.179, 552.067 511.542 C 552.655 511.905, 553.381 511.257, 553.684 510.101 C 553.986 508.945, 554.672 508, 555.209 508 C 556.703 508, 561.013 504.346, 560.327 503.661 C 559.995 503.328, 560.897 502.609, 562.333 502.063 C 563.845 501.489, 565.212 500.003, 565.580 498.535 C 566.294 495.693, 566.985 495.429, 568.947 497.250 C 569.995 498.223, 570.139 498.226, 569.595 497.262 C 569.177 496.521, 570.758 494.035, 573.539 491.062 C 576.507 487.888, 577.910 485.632, 577.430 484.800 C 577.017 484.085, 577.045 483.831, 577.491 484.234 C 577.937 484.638, 578.946 484.188, 579.733 483.234 C 581.083 481.597, 581.131 481.601, 580.593 483.302 C 580.239 484.422, 580.423 484.857, 581.080 484.451 C 581.661 484.092, 581.909 483.205, 581.631 482.481 C 581.353 481.757, 582.559 479.665, 584.311 477.832 C 586.062 476, 587.380 474.275, 587.239 474 C 587.099 473.725, 587.662 472.707, 588.492 471.739 C 589.321 470.770, 590 469.725, 590 469.417 C 590 468.322, 592.772 466.106, 593.381 466.714 C 593.721 467.055, 594 466.381, 594 465.216 C 594 464.052, 594.788 462.641, 595.750 462.080 C 596.712 461.519, 597.050 461.040, 596.500 461.015 C 595.933 460.989, 595.986 460.652, 596.623 460.235 C 598.063 459.292, 603.757 447.925, 608.314 436.896 C 624.301 398.205, 632.015 359.187, 631.989 317.143 C 631.929 218.588, 586.503 127.708, 507.329 67.749 C 464.927 35.638, 414.999 15.197, 360 7.431 C 349.983 6.017, 305.823 4.748, 296 5.592 M 292 43.105 C 250.742 47.766, 217.532 58.459, 180.500 79.005 C 174.716 82.215, 158.584 92.733, 155.163 95.526 C 154.248 96.273, 149.675 99.909, 145 103.606 C 132.544 113.458, 109.719 136.869, 100.256 149.500 C 95.723 155.550, 91.662 160.950, 91.232 161.500 C 90.801 162.050, 87.916 166.550, 84.820 171.500 C 61.696 208.472, 47.845 249.374, 43.865 292.439 C 42.267 309.730, 43.328 345.318, 45.895 360.525 C 55.927 419.964, 80.344 468.549, 121.454 510.873 C 166.555 557.306, 224.825 585.606, 290.500 592.974 C 301.983 594.262, 334.642 594.263, 347 592.976 C 397.631 587.701, 444.109 569.415, 485.816 538.360 C 501.113 526.970, 527.752 500.317, 539.331 484.816 C 567.343 447.319, 584.105 408.045, 592.176 361 C 594.237 348.986, 594.490 344.307, 594.478 318.500 C 594.464 289.003, 594.057 284.158, 589.862 263.500 C 580.776 218.752, 562.964 180.935, 533.579 144 C 526.660 135.303, 503.841 111.974, 497.698 107.317 C 495.389 105.566, 492.600 103.304, 491.500 102.290 C 490.400 101.275, 487.925 99.355, 486 98.021 C 484.075 96.687, 482.275 95.313, 482 94.968 C 481.725 94.622, 478.125 92.081, 474 89.320 C 426.426 57.487, 374.390 41.802, 317.500 42.149 C 307.600 42.209, 296.125 42.639, 292 43.105 M 308 195.629 C 279.086 197.380, 250.838 203.123, 229.370 211.615 C 205.917 220.891, 191.895 229.812, 177 244.930 C 162.187 259.965, 154.714 273.462, 151.292 291.360 C 149.652 299.937, 150.304 308.231, 153.466 319 C 156.702 330.027, 163.313 343.097, 169.651 351 C 177.801 361.162, 197.297 378, 200.913 378 C 201.511 378, 202 378.380, 202 378.844 C 202 379.915, 221.568 389.140, 229.500 391.808 C 250 398.704, 272.732 401.479, 302 400.659 C 318.373 400.201, 324.815 399.591, 334 397.632 C 372.665 389.386, 394.833 374.321, 399.097 353.394 C 401.747 340.385, 396.585 325.391, 386.184 315.885 C 372.734 303.593, 353.493 298.004, 324.616 298.001 C 307.710 298, 302.848 297.151, 298.541 293.451 C 290.575 286.606, 295.980 275.035, 309.254 270.515 C 316.190 268.154, 342.236 267.286, 355.776 268.966 C 398.588 274.276, 425.953 291.775, 436.770 320.758 C 439.859 329.035, 441.024 347.814, 439.012 356.888 C 432.372 386.827, 402.904 410.354, 359.316 420.515 C 345.125 423.823, 331.900 425.145, 307.474 425.698 C 280.853 426.300, 264.766 425.347, 245.517 422.027 C 233.850 420.015, 229.634 420.040, 239.903 422.061 C 243.815 422.830, 246 423.751, 246 424.630 C 246 425.384, 245.438 426.007, 244.750 426.015 C 243.917 426.026, 244 426.354, 245 427 C 246.160 427.750, 245.820 427.992, 243.500 428.071 L 240.500 428.172 243.500 429.118 C 248.987 430.848, 267.367 434.045, 277.500 435.033 C 293.873 436.629, 338.720 436.344, 352.276 434.558 C 382.623 430.560, 408.735 422.885, 429.688 411.805 C 471.270 389.818, 494.338 353.452, 487.648 320.436 C 482.576 295.402, 467.343 273.674, 443.648 257.673 C 420.066 241.749, 390.269 232.971, 354.500 231.410 C 300.632 229.060, 255.963 244.500, 243.323 269.841 C 240.740 275.019, 240.500 276.434, 240.500 286.500 C 240.500 296.521, 240.757 298.057, 243.393 303.763 C 247.060 311.705, 256.912 321.227, 266.021 325.635 C 280.457 332.621, 293.084 334.997, 315.822 335.006 C 332.764 335.012, 337.142 335.942, 341.703 340.503 C 348.888 347.688, 343.711 358.181, 330.781 362.640 C 323.243 365.240, 288.620 365.255, 275.500 362.665 C 236.802 355.023, 213.768 338.179, 203.859 310.275 C 200.919 301.998, 200.171 283.775, 202.409 275 C 211.079 241.015, 245.686 216.831, 296.093 209.530 C 325.571 205.261, 372.857 206.157, 398.378 211.468 C 427.431 217.514, 454.694 228.272, 470.964 240.111 L 476.500 244.139 471.095 238.991 C 459.157 227.621, 435.664 214.426, 415.801 207.935 C 398.415 202.254, 390.233 200.418, 369 197.435 C 358.664 195.982, 320.708 194.859, 308 195.629 M 268 397 C 268 397.550, 268.900 398, 270 398 C 271.100 398, 272 397.550, 272 397 C 272 396.450, 271.100 396, 270 396 C 268.900 396, 268 396.450, 268 397" stroke="none" fill="#28c4de" fill-rule="evenodd"/></svg>