<svg width="32" height="32" viewBox="0 0 32 32" fill="none" xmlns="http://www.w3.org/2000/svg">
<g opacity="0.3">
<mask id="mask0_5554_69371" style="mask-type:alpha" maskUnits="userSpaceOnUse" x="10" y="4" width="11" height="7">
<path fill-rule="evenodd" clip-rule="evenodd" d="M14.9399 9.77007L20.0457 10.6529C16.2161 9.99033 15.9805 6.80368 10.8281 4.00049C10.2655 5.85885 11.4306 9.21054 14.9399 9.77007Z" fill="white"/>
</mask>
<g mask="url(#mask0_5554_69371)">
<rect x="10.2654" y="4.00049" width="9.7802" height="6.65245" fill="url(#paint0_linear_5554_69371)"/>
</g>
<mask id="mask1_5554_69371" style="mask-type:alpha" maskUnits="userSpaceOnUse" x="10" y="4" width="14" height="11">
<path fill-rule="evenodd" clip-rule="evenodd" d="M10.8279 4.00049C15.9803 6.80307 16.2159 9.99033 20.0455 10.6529C21.9676 10.9855 20.232 14.2654 18.1816 13.9193C21.8652 15.1715 25.2261 11.834 23.3039 10.7873L10.8279 4.00049Z" fill="white"/>
</mask>
<g mask="url(#mask1_5554_69371)">
<rect x="10.8279" y="4.00049" width="14.3988" height="11.1711" fill="url(#paint1_linear_5554_69371)"/>
</g>
<mask id="mask2_5554_69371" style="mask-type:alpha" maskUnits="userSpaceOnUse" x="12" y="10" width="16" height="15">
<path fill-rule="evenodd" clip-rule="evenodd" d="M18.186 13.9202C18.1854 13.9202 18.1835 13.9202 18.1829 13.9202C17.9418 13.8791 17.6964 13.7889 17.4516 13.6362C15.9104 12.6772 14.3594 12.3668 12.9557 12.5183C15.8853 12.8766 18.6713 16.7136 18.3253 19.5536C18.386 20.5236 18.0455 21.512 17.305 22.2525L15.6147 23.9428C16.9184 24.8011 18.8989 23.9066 19.5038 22.6617L22.9132 15.6479C23.75 15.4498 29.0902 14.0656 26.6808 12.6245L23.3114 10.7913C25.2182 11.8422 21.8628 15.1688 18.186 13.9202Z" fill="white"/>
</mask>
<g mask="url(#mask2_5554_69371)">
<rect x="12.9557" y="10.7913" width="16.1345" height="14.0098" fill="url(#paint2_linear_5554_69371)"/>
</g>
<mask id="mask3_5554_69371" style="mask-type:alpha" maskUnits="userSpaceOnUse" x="7" y="12" width="12" height="14">
<path fill-rule="evenodd" clip-rule="evenodd" d="M12.9524 12.5178C8.36756 13.0166 5.36374 18.458 9.44675 22.3913L12.8671 25.8117C10.6235 23.568 10.4094 20.2869 11.7941 18.0058C11.9426 17.7512 12.1266 17.5113 12.345 17.2929C13.7144 15.9223 15.9348 15.9223 17.3042 17.2929C17.933 17.9211 18.2729 18.7291 18.3245 19.5525C18.6705 16.7131 15.8857 12.8786 12.958 12.5178H12.9524Z" fill="white"/>
</mask>
<g mask="url(#mask3_5554_69371)">
<rect x="5.36401" y="12.5181" width="13.3074" height="13.2939" fill="url(#paint3_linear_5554_69371)"/>
</g>
<mask id="mask4_5554_69371" style="mask-type:alpha" maskUnits="userSpaceOnUse" x="10" y="18" width="6" height="10">
<path fill-rule="evenodd" clip-rule="evenodd" d="M12.8673 25.8115L14.7931 27.7367C15.4361 27.2257 15.8208 25.7274 14.8238 24.7311L12.3446 22.2512C11.193 21.1002 11.0102 19.3486 11.7936 18.0056C10.4095 20.2867 10.6236 23.5678 12.8673 25.8115Z" fill="white"/>
</mask>
<g mask="url(#mask4_5554_69371)">
<path d="M13.3994 30.4284L5.5708 23.3827L12.8313 15.3154L20.6598 22.3611L13.3994 30.4284Z" fill="url(#paint4_linear_5554_69371)"/>
</g>
<mask id="mask5_5554_69371" style="mask-type:alpha" maskUnits="userSpaceOnUse" x="17" y="2" width="7" height="8">
<path fill-rule="evenodd" clip-rule="evenodd" d="M17.5038 6.53954L23.2427 9.66177L17.9247 2.6001C17.197 3.42897 16.8442 5.0726 17.5038 6.53954Z" fill="white"/>
</mask>
<g mask="url(#mask5_5554_69371)">
<rect x="16.8441" y="2.6001" width="6.39845" height="7.06167" fill="url(#paint5_linear_5554_69371)"/>
</g>
<mask id="mask6_5554_69371" style="mask-type:alpha" maskUnits="userSpaceOnUse" x="13" y="18" width="4" height="4">
<path fill-rule="evenodd" clip-rule="evenodd" d="M13.5193 19.7723C13.5193 20.4938 14.1046 21.0785 14.8249 21.0785C15.547 21.0785 16.1317 20.4938 16.1317 19.7723C16.1317 19.0514 15.547 18.4661 14.8249 18.4661C14.104 18.4661 13.5193 19.0514 13.5193 19.7723Z" fill="white"/>
</mask>
<g mask="url(#mask6_5554_69371)">
<rect x="13.5193" y="18.4661" width="2.61239" height="2.61239" fill="url(#paint6_linear_5554_69371)"/>
</g>
<mask id="mask7_5554_69371" style="mask-type:alpha" maskUnits="userSpaceOnUse" x="5" y="12" width="3" height="3">
<path fill-rule="evenodd" clip-rule="evenodd" d="M5.19995 13.4583C5.19995 14.1792 5.78587 14.7645 6.50676 14.7645C7.22826 14.7645 7.81234 14.1792 7.81234 13.4583C7.81234 12.7374 7.22826 12.1521 6.50676 12.1521C5.78587 12.1521 5.19995 12.7374 5.19995 13.4583Z" fill="white"/>
</mask>
<g mask="url(#mask7_5554_69371)">
<rect x="5.19995" y="12.1521" width="2.61239" height="2.61239" fill="url(#paint7_linear_5554_69371)"/>
</g>
</g>
<defs>
<linearGradient id="paint0_linear_5554_69371" x1="10.6927" y1="10.5001" x2="20.0411" y2="10.5001" gradientUnits="userSpaceOnUse">
<stop stop-color="#FFA600"/>
<stop offset="0.34" stop-color="#FF9F00"/>
<stop offset="0.69" stop-color="#FF7300"/>
<stop offset="1" stop-color="#F52900"/>
</linearGradient>
<linearGradient id="paint1_linear_5554_69371" x1="10.8277" y1="14.6463" x2="23.8668" y2="14.6463" gradientUnits="userSpaceOnUse">
<stop stop-color="#FFA600"/>
<stop offset="0.34" stop-color="#FF9F00"/>
<stop offset="0.69" stop-color="#FF7300"/>
<stop offset="1" stop-color="#F52900"/>
</linearGradient>
<linearGradient id="paint2_linear_5554_69371" x1="12.9527" y1="24.0371" x2="27.3032" y2="24.0371" gradientUnits="userSpaceOnUse">
<stop stop-color="#FFA600"/>
<stop offset="0.34" stop-color="#FF9F00"/>
<stop offset="1" stop-color="#FF6200"/>
</linearGradient>
<linearGradient id="paint3_linear_5554_69371" x1="7.51209" y1="24.5893" x2="18.3471" y2="24.5893" gradientUnits="userSpaceOnUse">
<stop stop-color="#FFA600"/>
<stop offset="0.34" stop-color="#FF9F00"/>
<stop offset="0.69" stop-color="#FF7300"/>
<stop offset="1" stop-color="#F52900"/>
</linearGradient>
<linearGradient id="paint4_linear_5554_69371" x1="16.3533" y1="22.7367" x2="12.9773" y2="19.708" gradientUnits="userSpaceOnUse">
<stop stop-color="#FFA600"/>
<stop offset="0.34" stop-color="#FF9F00"/>
<stop offset="0.69" stop-color="#FF7300"/>
<stop offset="1" stop-color="#F52900"/>
</linearGradient>
<linearGradient id="paint5_linear_5554_69371" x1="17.158" y1="9.47677" x2="23.2422" y2="9.47677" gradientUnits="userSpaceOnUse">
<stop stop-color="#FFA600"/>
<stop offset="0.34" stop-color="#FF9F00"/>
<stop offset="1" stop-color="#FF6200"/>
</linearGradient>
<linearGradient id="paint6_linear_5554_69371" x1="13.5179" y1="21.0767" x2="16.131" y2="21.0767" gradientUnits="userSpaceOnUse">
<stop stop-color="#FFA600"/>
<stop offset="0.34" stop-color="#FF9F00"/>
<stop offset="1" stop-color="#FF6200"/>
</linearGradient>
<linearGradient id="paint7_linear_5554_69371" x1="5.19912" y1="14.7599" x2="7.81018" y2="14.7599" gradientUnits="userSpaceOnUse">
<stop stop-color="#FFA600"/>
<stop offset="0.34" stop-color="#FF9F00"/>
<stop offset="1" stop-color="#FF6200"/>
</linearGradient>
</defs>
</svg>
