<svg width="23" height="26" viewBox="0 0 23 26" fill="none" xmlns="http://www.w3.org/2000/svg">
<mask id="mask0_3672_48499" style="mask-type:alpha" maskUnits="userSpaceOnUse" x="5" y="2" width="11" height="7">
<path fill-rule="evenodd" clip-rule="evenodd" d="M9.94005 7.76989L15.0458 8.65275C11.2162 7.99015 10.9806 4.8035 5.82821 2.00031C5.26561 3.85867 6.43069 7.21036 9.94005 7.76989Z" fill="white"/>
</mask>
<g mask="url(#mask0_3672_48499)">
<rect x="5.26562" y="2.00031" width="9.7802" height="6.65245" fill="url(#paint0_linear_3672_48499)"/>
</g>
<mask id="mask1_3672_48499" style="mask-type:alpha" maskUnits="userSpaceOnUse" x="5" y="2" width="14" height="11">
<path fill-rule="evenodd" clip-rule="evenodd" d="M5.82812 2.00031C10.9805 4.80289 11.2161 7.99015 15.0457 8.65275C16.9679 8.98528 15.2322 12.2652 13.1818 11.9192C16.8654 13.1714 20.2263 9.83379 18.3041 8.78712L5.82812 2.00031Z" fill="white"/>
</mask>
<g mask="url(#mask1_3672_48499)">
<rect x="5.82812" y="2.00031" width="14.3988" height="11.1711" fill="url(#paint1_linear_3672_48499)"/>
</g>
<mask id="mask2_3672_48499" style="mask-type:alpha" maskUnits="userSpaceOnUse" x="7" y="8" width="16" height="15">
<path fill-rule="evenodd" clip-rule="evenodd" d="M13.1864 11.92C13.1857 11.92 13.1839 11.92 13.1833 11.92C12.9422 11.8789 12.6968 11.7887 12.452 11.6359C10.9108 10.677 9.3598 10.3665 7.95605 10.5181C10.8856 10.8764 13.6717 14.7134 13.3256 17.5534C13.3864 18.5234 13.0459 19.5117 12.3053 20.2523L10.6151 21.9425C11.9188 22.8009 13.8993 21.9063 14.5042 20.6615L17.9136 13.6477C18.7504 13.4495 24.0905 12.0654 21.6812 10.6242L18.3117 8.79102C20.2186 9.84198 16.8632 13.1685 13.1864 11.92Z" fill="white"/>
</mask>
<g mask="url(#mask2_3672_48499)">
<rect x="7.95605" y="8.79102" width="16.1345" height="14.0098" fill="url(#paint2_linear_3672_48499)"/>
</g>
<mask id="mask3_3672_48499" style="mask-type:alpha" maskUnits="userSpaceOnUse" x="2" y="10" width="12" height="14">
<path fill-rule="evenodd" clip-rule="evenodd" d="M7.95292 10.5177C3.36805 11.0165 0.36423 16.4578 4.44724 20.3911L7.86764 23.8115C5.62398 21.5679 5.40986 18.2867 6.79458 16.0056C6.94306 15.751 7.12711 15.5111 7.34553 15.2927C8.71492 13.9221 10.9353 13.9221 12.3046 15.2927C12.9335 15.921 13.2734 16.729 13.3249 17.5523C13.671 14.713 10.8862 10.8784 7.95844 10.5177H7.95292Z" fill="white"/>
</mask>
<g mask="url(#mask3_3672_48499)">
<rect x="0.364258" y="10.5177" width="13.3074" height="13.2939" fill="url(#paint3_linear_3672_48499)"/>
</g>
<mask id="mask4_3672_48499" style="mask-type:alpha" maskUnits="userSpaceOnUse" x="5" y="16" width="6" height="10">
<path fill-rule="evenodd" clip-rule="evenodd" d="M7.86766 23.8115L9.79351 25.7368C10.4365 25.2257 10.8212 23.7275 9.82419 22.7311L7.34493 20.2512C6.19335 19.1003 6.01052 17.3487 6.79399 16.0056C5.40988 18.2867 5.624 21.5679 7.86766 23.8115Z" fill="white"/>
</mask>
<g mask="url(#mask4_3672_48499)">
<path d="M8.39986 28.4285L0.571289 21.3828L7.83174 13.3155L15.6603 20.3612L8.39986 28.4285Z" fill="url(#paint4_linear_3672_48499)"/>
</g>
<mask id="mask5_3672_48499" style="mask-type:alpha" maskUnits="userSpaceOnUse" x="12" y="0" width="7" height="8">
<path fill-rule="evenodd" clip-rule="evenodd" d="M12.5039 4.53945L18.2428 7.66168L12.9248 0.600006C12.1971 1.42888 11.8444 3.07251 12.5039 4.53945Z" fill="white"/>
</mask>
<g mask="url(#mask5_3672_48499)">
<rect x="11.8442" y="0.600006" width="6.39845" height="7.06167" fill="url(#paint5_linear_3672_48499)"/>
</g>
<mask id="mask6_3672_48499" style="mask-type:alpha" maskUnits="userSpaceOnUse" x="8" y="16" width="4" height="4">
<path fill-rule="evenodd" clip-rule="evenodd" d="M8.51953 17.7722C8.51953 18.4937 9.10483 19.0784 9.82511 19.0784C10.5472 19.0784 11.1319 18.4937 11.1319 17.7722C11.1319 17.0513 10.5472 16.466 9.82511 16.466C9.10422 16.466 8.51953 17.0513 8.51953 17.7722Z" fill="white"/>
</mask>
<g mask="url(#mask6_3672_48499)">
<rect x="8.51953" y="16.466" width="2.61239" height="2.61239" fill="url(#paint6_linear_3672_48499)"/>
</g>
<mask id="mask7_3672_48499" style="mask-type:alpha" maskUnits="userSpaceOnUse" x="0" y="10" width="3" height="3">
<path fill-rule="evenodd" clip-rule="evenodd" d="M0.200195 11.4581C0.200195 12.179 0.786111 12.7643 1.507 12.7643C2.22851 12.7643 2.81258 12.179 2.81258 11.4581C2.81258 10.7372 2.22851 10.1519 1.507 10.1519C0.786111 10.1519 0.200195 10.7372 0.200195 11.4581Z" fill="white"/>
</mask>
<g mask="url(#mask7_3672_48499)">
<rect x="0.200195" y="10.1519" width="2.61239" height="2.61239" fill="url(#paint7_linear_3672_48499)"/>
</g>
<defs>
<linearGradient id="paint0_linear_3672_48499" x1="5.6929" y1="8.49989" x2="15.0414" y2="8.49989" gradientUnits="userSpaceOnUse">
<stop stop-color="#FFA600"/>
<stop offset="0.34" stop-color="#FF9F00"/>
<stop offset="0.69" stop-color="#FF7300"/>
<stop offset="1" stop-color="#F52900"/>
</linearGradient>
<linearGradient id="paint1_linear_3672_48499" x1="5.82794" y1="12.6462" x2="18.8671" y2="12.6462" gradientUnits="userSpaceOnUse">
<stop stop-color="#FFA600"/>
<stop offset="0.34" stop-color="#FF9F00"/>
<stop offset="0.69" stop-color="#FF7300"/>
<stop offset="1" stop-color="#F52900"/>
</linearGradient>
<linearGradient id="paint2_linear_3672_48499" x1="7.95302" y1="22.0368" x2="22.3036" y2="22.0368" gradientUnits="userSpaceOnUse">
<stop stop-color="#FFA600"/>
<stop offset="0.34" stop-color="#FF9F00"/>
<stop offset="1" stop-color="#FF6200"/>
</linearGradient>
<linearGradient id="paint3_linear_3672_48499" x1="2.51234" y1="22.589" x2="13.3474" y2="22.589" gradientUnits="userSpaceOnUse">
<stop stop-color="#FFA600"/>
<stop offset="0.34" stop-color="#FF9F00"/>
<stop offset="0.69" stop-color="#FF7300"/>
<stop offset="1" stop-color="#F52900"/>
</linearGradient>
<linearGradient id="paint4_linear_3672_48499" x1="11.3538" y1="20.7368" x2="7.97781" y2="17.7081" gradientUnits="userSpaceOnUse">
<stop stop-color="#FFA600"/>
<stop offset="0.34" stop-color="#FF9F00"/>
<stop offset="0.69" stop-color="#FF7300"/>
<stop offset="1" stop-color="#F52900"/>
</linearGradient>
<linearGradient id="paint5_linear_3672_48499" x1="12.1581" y1="7.47668" x2="18.2423" y2="7.47668" gradientUnits="userSpaceOnUse">
<stop stop-color="#FFA600"/>
<stop offset="0.34" stop-color="#FF9F00"/>
<stop offset="1" stop-color="#FF6200"/>
</linearGradient>
<linearGradient id="paint6_linear_3672_48499" x1="8.51815" y1="19.0766" x2="11.1313" y2="19.0766" gradientUnits="userSpaceOnUse">
<stop stop-color="#FFA600"/>
<stop offset="0.34" stop-color="#FF9F00"/>
<stop offset="1" stop-color="#FF6200"/>
</linearGradient>
<linearGradient id="paint7_linear_3672_48499" x1="0.199363" y1="12.7597" x2="2.81043" y2="12.7597" gradientUnits="userSpaceOnUse">
<stop stop-color="#FFA600"/>
<stop offset="0.34" stop-color="#FF9F00"/>
<stop offset="1" stop-color="#FF6200"/>
</linearGradient>
</defs>
</svg>
