<svg width="535" height="282" viewBox="0 0 535 282" fill="none" xmlns="http://www.w3.org/2000/svg">
<path d="M134.195 281.721C133.464 281.283 133.151 278.821 132.159 278C131.167 277.18 126.418 277.399 125.531 275.702C124.643 274.007 121.981 267.989 120.52 263.831C119.058 259.672 114.934 251.521 113.734 249.988C112.534 248.456 113.003 238.718 112.69 235.052C112.377 231.332 111.96 207.916 111.96 205.454C111.96 202.992 101.677 198.341 101.208 198.068C100.79 197.74 93.6913 184.062 91.8116 181.271C89.8808 178.481 89.0456 174.979 88.7324 173.721C88.4191 172.463 90.7679 172.026 90.3507 170.493C89.9327 168.961 89.9327 166.335 90.7679 164.311C91.6557 162.287 96.7705 158.019 97.3971 156.433C97.9709 154.901 97.5537 149.211 95.9354 148.444C94.317 147.679 90.194 149.703 87.6886 148.007C85.1832 146.311 81.686 140.129 80.7989 138.925C79.9118 137.667 75.527 136.026 74.4831 135.533C73.4391 135.04 69.9421 131.21 69.9421 131.21C69.9421 131.21 63.9396 131.813 61.5908 130.883C59.242 129.952 50.7341 124.864 50.1077 124.098C49.5336 123.333 49.9512 117.806 49.7945 117.15C49.638 116.548 46.2453 112.062 45.4101 110.859C44.5228 109.6 40.5559 98.3845 40.5559 98.3845C40.5559 98.3845 40.2428 101.284 40.2428 102.542C40.2428 103.801 43.4789 109.928 43.792 110.859C44.1052 111.788 43.4789 115.454 43.4789 115.454C43.4789 115.454 37.894 106.974 37.5808 106.044C37.2676 105.114 36.2759 96.7978 35.9628 95.2657C35.6496 93.7336 32.8832 93.7336 32.7267 91.8739C32.57 90.0133 30.5344 82.0259 31.4217 79.7278C32.3091 77.4299 41.1301 68.3478 41.2867 64.7916C41.4432 61.2354 40.0862 59.2658 40.0862 59.2658C40.0862 59.2658 41.3911 55.8737 41.5477 54.7794C41.7043 53.6852 41.3911 45.5333 40.9735 43.6731C40.5559 41.813 31.3174 36.9437 31.3174 36.9437C31.3174 36.9437 27.9246 39.5698 27.0373 39.7339C26.1499 39.8981 20.2519 40.4999 18.686 41.1017C17.1201 41.7035 0 47.2841 0 47.2841C0 47.2841 6.15908 42.6883 6.15908 42.1959C6.15908 41.7035 1.30489 40.0622 2.50539 38.3662C3.70589 36.6701 4.12345 35.5759 7.0464 34.2081C9.96931 32.8403 13.0489 32.1838 13.0489 32.1838L14.3538 28.6276C20.9826 25.2355 34.7622 18.2872 35.8061 18.0136C36.85 17.6853 52.4043 20.9133 58.5634 22.0075C64.7225 23.1017 80.7469 19.7096 80.7469 19.7096L90.7159 23.2659L115.404 23.1017L116.605 17.4118C116.605 17.4118 121.772 16.1535 122.503 16.81C123.234 17.4118 123.964 21.5698 124.696 20.968C125.426 20.3662 128.662 14.348 129.862 13.5821C131.063 12.8161 145.887 13.5821 145.887 13.5821C147.817 15.7158 157.369 25.6184 156.326 26.3844C155.282 27.1504 151.471 27.9163 150.897 28.4087C150.323 28.8464 151.628 33.3327 148.392 34.5911C145.156 35.8494 141.346 34.7552 140.041 33.3327C138.736 31.9649 134.456 30.5424 135.5 30.1048C136.543 29.6671 136.805 30.2689 138.579 29.0105C140.354 27.7522 144.478 24.6883 142.859 23.3206C141.241 21.9528 139.205 20.8586 137.692 20.8586C136.23 20.8586 130.072 26.5485 128.558 28.0804C127.096 29.6124 126.626 31.8008 125.791 31.9102C124.956 32.0197 119.893 31.3084 118.901 31.9102C117.858 32.5121 102.721 39.2963 103.347 40.0622C103.974 40.8282 111.281 47.2841 112.012 48.2142C112.742 49.1442 112.899 54.8341 114.517 54.5059C116.135 54.1776 117.753 50.7855 118.901 49.0895C120.05 47.3935 124.173 46.2993 124.643 45.8616C125.061 45.4239 123.912 41.8677 124.643 40.7735C125.374 39.6792 130.072 33.661 130.802 33.661C131.533 33.661 137.431 34.7552 138.005 35.5212C138.579 36.2871 139.623 40.7735 141.241 40.7735C142.859 40.7735 148.287 38.7491 148.287 38.7491L149.019 45.5333L152.098 47.6671C152.098 47.6671 153.298 53.9588 153.716 57.515C154.133 61.0712 154.917 64.901 153.716 65.0651C152.515 65.2293 150.793 65.667 150.166 65.0651C149.592 64.4633 143.277 64.7369 143.381 63.6974C143.486 62.6578 145.887 61.0712 145.156 59.977C144.425 58.8828 142.389 58.8828 140.302 59.0469C138.266 59.211 134.56 62.439 135.134 64.1351C135.708 65.8311 141.294 68.7308 141.763 69.2232C142.181 69.6609 135.134 72.0135 133.412 72.6153C131.637 73.2171 127.253 71.3569 126.366 71.3569C125.478 71.3569 120.624 75.3509 117.388 78.4694C114.152 81.5333 100.32 94.9373 99.5892 96.1956C98.8588 97.4538 98.3888 104.84 97.8143 106.974C97.2404 109.108 96.0401 112.226 94.8916 111.57C93.6913 110.968 93.2733 109.108 92.3862 106.482C91.4991 103.855 88.9937 100.299 87.532 100.19C86.0703 100.026 83.5648 103.746 82.1039 103.253C80.6422 102.761 77.9801 101.722 75.2138 102.159C72.4474 102.597 69.0547 104.293 68.1674 106.317C67.2801 108.341 63.6264 119.886 63.8874 120.651C64.2005 121.418 68.0108 125.248 69.4723 125.248C70.9338 125.248 74.3265 120.16 75.3703 120.16C76.4145 120.16 82.1559 119.393 82.1559 120.16C82.1559 120.925 77.6149 129.843 80.2243 130.172C82.8863 130.499 87.4273 130.499 87.4273 131.867C87.4273 133.235 86.2269 142.645 86.2269 142.645C86.2269 142.645 92.2296 145.435 93.5866 145.271C94.8916 145.107 95.2049 144.506 98.2842 142.973C101.363 141.442 109.141 137.12 109.871 137.284C110.603 137.448 116.918 141.77 116.918 141.77L119.685 140.676C119.685 140.676 125.269 140.676 125.843 140.676C126.418 140.676 127.148 145.764 127.148 145.764C127.148 145.764 130.385 148.39 131.167 148.664C131.95 148.992 134.926 149.265 135.343 149.43C135.761 149.594 141.084 151.563 142.129 152.494C143.173 153.424 144.895 156.487 145.521 158.676C146.095 160.81 146.982 162.669 152.463 164.858C157.944 166.992 158.727 166.718 161.702 167.922C164.677 169.126 173.446 175.91 173.759 176.84C174.072 177.77 167.861 187.946 165.825 189.15C163.79 190.354 165.825 211.035 165.825 211.035C165.825 211.035 153.768 215.028 151.733 215.959C149.697 216.889 151.733 220.883 151.733 222.141C151.733 223.399 143.225 236.311 142.024 240.961C140.824 245.557 137.64 246.487 136.439 246.815C135.238 247.144 130.28 258.524 131.376 261.314C132.472 264.104 132.316 268.098 131.429 271.162C130.541 274.226 140.093 281.666 140.093 281.666C140.093 281.666 134.926 282.213 134.195 281.721ZM92.1249 118.736C93.7432 119.339 99.9025 123.333 102.982 124.263C106.061 125.192 106.949 123.169 106.218 123.004C105.487 122.84 97.0838 116.986 93.8479 115.783C90.6112 114.524 86.0703 117.314 86.0703 117.314C86.0703 117.314 90.5073 118.135 92.1249 118.736ZM112.064 126.451C113.682 126.779 116.709 125.849 116.396 124.919C116.083 123.989 112.795 123.059 112.377 123.004C111.96 122.949 109.141 123.934 109.141 123.934C109.141 123.934 110.446 126.178 112.064 126.451ZM170.314 14.2933C170.523 15.1139 173.446 19.4361 173.08 20.0926C172.715 20.7491 169.166 22.1169 168.591 23.9771C168.018 25.8373 167.026 32.4026 168.801 34.4269C170.575 36.4513 174.699 40.7735 176.056 39.9528C177.413 39.1321 182.11 29.6671 184.459 28.6823C186.808 27.6428 192.289 27.8616 194.22 26.6032C196.151 25.3449 207.007 22.4999 207.79 22.0622C208.574 21.6245 209.356 16.9194 212.906 15.2781C216.455 13.6368 218.961 8.27507 219.378 7.45439C219.796 6.63372 229.556 2.53039 229.556 2.53039C229.556 2.53039 224.284 2.96807 219.743 1.27203C215.202 -0.424012 203.876 -0.424012 196.098 1.27203C188.322 2.96807 184.041 0.67021 176.839 2.36625C169.636 4.0623 163.32 5.43007 160.971 6.19603C158.622 6.96199 158.779 9.25987 159.196 9.25987C159.614 9.25987 165.669 10.0258 169.479 10.0258C169.427 10.1353 170.158 13.4726 170.314 14.2933ZM263.013 84.5423C263.013 84.5423 265.362 79.4542 264.37 78.0317C263.379 76.6092 257.794 69.0044 257.794 69.0044C257.794 69.0044 266.51 73.3265 266.824 73.6001C267.137 73.9284 268.494 78.0317 268.702 78.6335C268.912 79.2354 274.705 86.6215 274.705 86.6215L277.263 77.7034C278.046 79.1259 279.142 87.3327 281.96 87.8797C284.779 88.3723 296.576 86.0192 296.576 86.0192C296.576 86.0192 293.809 95.8672 293.444 96.9068C293.026 97.9464 296.001 104.512 298.35 108.615C300.698 112.718 301.482 116.439 301.482 116.439C301.482 116.439 304.404 118.08 305.396 119.94C306.388 121.801 314.426 139.253 315.783 138.652C317.14 138.049 334.208 129.022 334.782 127.764C335.357 126.506 340.471 118.135 339.898 117.314C339.323 116.494 333.634 110.968 332.643 110.749C331.651 110.53 329.719 112.828 329.719 112.828C329.719 112.828 326.17 112.007 323.247 109.108C320.324 106.208 317.975 101.284 317.975 101.284C317.975 101.284 324.813 107.029 326.013 107.74C327.214 108.451 335.409 107.74 335.409 107.74L337.549 110.312L348.927 109.873C348.927 109.873 354.408 118.518 355.609 120.324C356.809 122.183 363.437 120.324 363.437 120.324L362.446 127.928L372.833 148.062C372.833 148.062 376.382 143.959 376.748 143.138C377.165 142.318 378.105 133.892 378.105 133.892C378.105 133.892 381.236 130.39 382.019 128.968C382.802 127.546 390.266 117.862 391.989 117.478C393.711 117.095 396.112 118.736 399.609 122.84C403.158 126.943 402.167 131.484 402.167 131.484C402.167 131.484 405.716 129.624 406.864 129.624C408.065 129.624 408.221 131.703 409.788 133.728C411.353 135.807 409.683 144.232 410.101 145.655C410.518 147.022 413.023 153.533 414.432 155.119C415.842 156.761 421.114 162.287 421.114 161.958C421.114 161.63 421.479 159.332 421.322 158.566C421.166 157.801 420.644 157.472 420.644 156.269C420.644 155.01 420.278 152.11 418.504 150.359C416.729 148.609 412.867 145.764 412.293 142.809C411.718 139.855 414.954 137.885 416.312 139.417C417.669 140.95 423.097 146.913 423.097 146.913C427.012 143.193 430.144 137.885 429.935 136.463C429.726 135.04 423.097 126.834 422.105 124.974C421.114 123.113 423.097 120.268 424.454 118.792C425.811 117.369 428.943 121.691 430.144 121.035C431.344 120.433 441.104 115.509 441.679 114.688C442.253 113.868 445.593 101.12 445.02 99.6971C444.445 98.2747 439.904 92.3112 438.965 91.0529C437.973 89.7947 442.306 86.1289 442.306 86.1289C442.306 86.1289 437.816 85.5275 435.833 84.4879C433.849 83.4483 433.693 79.7825 434.633 79.2354C435.624 78.743 438.077 82.299 438.965 82.299C439.852 82.299 441.47 80.8221 441.47 80.8221L451.178 93.2963C451.178 93.2963 454.258 89.4663 454.571 88.5365C454.885 87.6058 447.942 79.4542 447.942 79.4542C447.942 79.4542 456.032 74.2019 456.189 72.3417C456.346 70.4816 457.494 61.8919 457.494 61.8919C457.494 61.8919 462.192 66.3782 462.766 66.6518C463.34 66.98 466.159 66.6518 465.272 65.284C464.384 63.9162 457.181 53.7399 455.72 52.3175C454.258 50.9497 446.115 50.1838 446.115 50.1838L440.739 47.2294C440.739 47.2294 444.288 40.4452 445.228 40.1169C446.22 39.7887 459.843 41.5394 460.626 40.8282C461.408 40.1169 460.051 34.3722 461.826 35.5759C463.601 36.8342 467.202 37.4361 467.516 37.9285C467.829 38.4209 466.837 45.0956 467.62 45.9163C468.403 46.737 479.573 58.1168 479.573 58.1168C479.573 58.1168 480.147 50.129 479.573 47.12C478.998 44.1108 474.301 39.6245 474.301 39.6245C474.301 39.6245 478.111 39.6245 478.998 39.0227C479.886 38.4209 487.246 33.7704 487.246 33.7704L484.897 30.7066L494.605 31.3084V26.7127C494.605 26.7127 488.446 24.2507 485.471 23.9224C482.548 23.5941 464.906 19.9285 464.906 19.9285C464.906 19.9285 444.028 19.6002 441.418 19.6002C438.756 19.6002 420.853 16.2082 418.191 15.8799C415.529 15.5516 407.908 17.1382 407.908 17.1382L403.524 13.2538H382.646C382.646 13.2538 378.261 11.2842 373.511 8.82217C368.814 6.36016 366.151 6.96199 360.567 8.82217C354.982 10.6824 350.285 11.2842 342.925 15.0045C335.565 18.7248 330.868 12.8708 329.093 13.2538C327.318 13.6368 323.508 19.2719 321.734 20.1473C319.959 21.0227 307.328 25.126 304.091 23.9224C300.855 22.664 293.495 24.0865 293.495 24.0865L279.403 19.1625C279.403 19.1625 264.423 21.0227 263.536 21.7886C262.648 22.5546 246.624 37.0531 246.624 37.0531L248.085 42.3054L254.871 40.2263L256.802 49.0895L264.579 40.2263L261.917 36.6154L271.156 29.0652L268.964 34.5911L272.774 40.1716L265.728 49.9102C265.728 49.9102 256.489 51.1685 255.288 50.3479C254.088 49.5819 252.783 43.7279 251.165 44.8221C249.547 45.9163 250.121 48.3783 248.398 50.0743C246.624 51.7703 237.072 59.7582 234.149 60.2506C231.226 60.743 228.146 62.2749 228.564 62.8767C228.982 63.4785 234.306 64.901 235.349 65.9405C236.394 67.0348 235.924 71.3569 232.688 71.7946C229.451 72.2323 222.823 70.7004 221.518 74.6943C220.213 78.6883 220.056 83.7767 221.518 85.0349C222.98 86.2931 225.798 87.0588 225.798 87.0588L233.157 85.5275C233.157 85.5275 235.663 80.931 236.551 79.673C237.438 78.4147 241.717 73.9831 243.336 73.053C244.954 72.1229 251.112 70.591 251.112 70.591C251.112 70.591 252.574 72.6153 253.305 73.3813C254.036 74.1472 261.656 79.0712 261.396 80.3296C261.082 81.5878 257.742 84.4879 257.742 84.4879L263.013 84.5423ZM254.662 94.2806C254.662 94.2806 254.349 86.7304 253.931 86.1289C253.514 85.5275 242.605 86.1289 242.605 86.1289C238.325 86.2931 238.325 88.4268 233.627 89.1924C228.93 89.9589 226.737 88.9193 225.276 90.0678C223.815 91.2171 216.35 102.652 214.993 103.691C213.636 104.731 205.39 116.001 205.181 117.861C204.972 119.721 205.964 129.569 205.181 130.609C204.398 131.649 204.346 135.533 205.128 136.791C205.964 138.049 213.01 148.883 215.15 151.782C217.29 154.682 220.056 156.104 223.188 155.283C226.32 154.463 231.8 155.94 232.792 155.503C233.784 155.065 240.047 150.524 241.405 151.18C242.762 151.782 243.754 154.682 246.102 154.682C248.451 154.682 253.931 155.503 253.149 158.566C252.366 161.63 250.591 167.593 251.948 169.017C253.305 170.439 259.777 185.43 260.352 187.727C260.926 189.971 255.863 196.372 255.863 198.177C255.863 199.983 259.673 209.284 260.404 211.526C261.134 213.77 261.917 220.335 262.335 222.195C262.753 224.056 266.458 230.019 266.458 232.043C266.458 234.122 265.258 238.828 266.458 239.211C267.659 239.648 282.743 236.146 284.309 235.326C285.875 234.505 293.913 220.937 294.905 219.898C295.896 218.858 298.036 216.396 297.828 214.974C297.619 213.551 296.262 206.986 297.045 205.947C297.828 204.907 305.657 199.763 306.075 198.122C306.493 196.481 306.858 188.056 306.075 185.812C305.292 183.569 304.874 174.542 305.501 173.284C306.075 172.026 318.237 159.332 320.011 157.691C321.786 156.05 326.849 142.098 327.057 140.02C327.057 140.02 324.708 139.582 322.934 140.238C321.159 140.84 314.113 142.318 314.113 142.318C314.113 142.318 304.144 125.466 301.742 121.363C299.341 117.259 293.339 99.8069 292.347 98.7673C291.355 97.7277 290.051 97.7277 286.971 97.7277C283.892 97.7277 275.488 93.6246 273.922 93.6246C272.356 93.6246 270.216 98.7673 269.434 99.3688C268.651 99.971 262.178 97.1262 261.186 95.8672C260.247 94.609 257.742 93.0776 254.662 94.2806ZM317.453 219.186C318.654 219.186 320.063 213.004 320.637 210.268C321.211 207.478 325.178 195.934 324.604 194.238C324.03 192.542 322.829 189.916 322.099 189.751C321.368 189.588 320.481 193.472 318.862 195.442C317.245 197.411 314.896 199.162 314.008 199.6C313.121 200.037 312.964 202.062 313.121 204.196C313.278 206.329 310.355 211.144 310.198 212.183C310.042 213.223 311.503 219.132 311.503 219.132C311.503 219.132 316.253 219.186 317.453 219.186ZM206.381 28.2993C206.381 28.2993 209.2 30.9801 210.191 31.9102C211.183 32.8403 212.071 31.8008 214.576 31.9102C217.082 32.0197 218.386 29.4482 219.274 29.12C220.161 28.7917 222.092 27.6975 222.092 27.6975V25.0166C222.092 25.0166 214.367 26.275 213.167 26.5485C211.966 26.8768 209.252 26.3297 208.574 26.5485C207.947 26.7674 206.381 28.2993 206.381 28.2993ZM406.186 156.487C406.76 157.581 412.972 164.037 413.232 164.804C413.545 165.569 422.941 178.044 422.941 178.044C422.941 178.044 424.141 177.441 423.358 176.512C422.627 175.582 424.402 170.22 423.358 168.633C422.314 167.102 419.705 163.107 418.504 161.849C417.303 160.645 415.424 161.247 413.807 157.965C412.188 154.682 407.021 152.877 405.142 152.712C405.194 152.821 405.612 155.393 406.186 156.487ZM425.759 179.466C425.759 179.466 428.787 180.998 430.665 181.327C432.544 181.654 435.676 183.46 436.929 183.679C438.182 183.897 443.766 184.171 443.766 184.171C443.766 184.171 443.088 182.53 441.992 180.888C440.896 179.247 436.825 179.74 436.511 179.466C436.198 179.138 433.954 179.247 433.066 178.098C432.179 176.894 430.144 178.098 430.144 178.098C430.144 178.098 429.36 179.192 427.795 178.645C426.229 178.098 425.759 179.466 425.759 179.466ZM439.434 152.821C439.434 152.821 435.728 158.512 434.789 159.004C433.849 159.496 429.622 160.7 429.622 160.7C429.622 160.7 430.927 162.068 431.396 164.42C431.866 166.773 432.858 170.439 433.589 171.205C434.319 171.97 437.712 172.135 438.599 172.463C439.487 172.791 441.366 174.323 441.366 174.323L443.819 173.229C443.819 173.229 444.184 168.305 444.915 167.539C445.646 166.773 447.682 165.515 447.682 165.515V161.958C447.682 161.958 445.489 159.77 445.907 158.074C446.324 156.378 448.569 156.05 448.569 156.05C448.569 156.05 447.525 152.821 447.107 152.821C446.69 152.821 444.445 149.922 444.445 149.922L439.434 152.821ZM451.335 175.746C452.796 175.308 454.571 176.676 455.615 177.551C456.659 178.426 455.458 173.12 455.458 173.12L453.423 168.196C453.423 168.196 456.972 168.961 457.389 168.524C457.807 168.086 460.313 167.211 460.313 167.211L453.683 165.46C453.683 165.46 455.876 164.202 456.346 164.202C456.763 164.202 460.626 162.834 460.73 162.068C460.887 161.302 460.73 160.207 460.73 160.207C460.73 160.207 457.181 161.302 456.346 160.974C455.458 160.646 451.335 160.974 451.335 160.974C451.335 160.974 449.717 164.037 449.717 165.46C449.717 166.828 448.412 168.36 448.517 169.18C448.673 169.946 448.517 174.268 448.517 174.268C448.517 174.268 449.874 176.238 451.335 175.746ZM470.282 167.758L472.057 171.479C472.057 171.479 474.719 173.502 475.449 173.338C476.18 173.174 480.147 174.597 479.99 175.199C479.833 175.8 480.303 182.749 480.303 182.749L483.539 182.585L488.081 185.484L491.16 183.022C491.16 183.022 493.666 180.724 494.553 180.888C495.44 181.053 496.014 184.116 497.215 185.047C498.415 185.977 502.956 188.439 502.956 188.439V186.305C502.956 186.305 500.451 184.445 499.407 182.585C498.363 180.724 498.52 176.403 497.215 175.8C495.91 175.199 493.666 171.642 490.012 170.712C486.358 169.782 482.652 167.813 480.878 167.922C479.103 168.086 478.529 169.618 476.493 168.961C474.457 168.305 473.414 165.46 472.683 165.46C471.952 165.46 468.873 166.828 468.873 166.828L470.282 167.758ZM430.352 234.287V238.39C430.352 238.39 434.685 239.429 437.399 238.171C440.165 236.913 457.389 231.004 459.164 231.387C460.939 231.825 463.497 236.092 463.862 237.132C464.28 238.171 467.986 238.39 468.821 239.211C469.656 240.086 470.752 246.979 472.683 246.597C474.667 246.159 485.836 243.916 485.836 243.916C485.836 243.916 498.52 228.925 500.504 225.204C502.486 221.484 502.904 216.997 502.904 216.997L493.666 202.007C493.666 202.007 492.099 191.94 491.682 191.119C491.265 190.299 489.333 187.235 489.333 187.235C489.333 187.235 485.628 195.059 484.844 196.263C484.062 197.466 481.504 199.983 481.504 199.983C481.504 199.983 477.381 196.263 477.171 195.278C476.963 194.238 480.095 190.736 480.095 190.736C480.095 190.736 476.754 190.135 475.397 189.751C474.04 189.368 469.916 189.751 469.916 189.751L464.227 194.019C464.227 194.019 458.329 193.581 457.755 194.019C457.181 194.457 449.352 205.508 448.517 205.947C447.682 206.384 436.407 209.229 436.042 210.05C435.624 210.87 432.336 217.436 432.336 217.436C432.336 217.436 433.536 221.539 433.328 223.18C433.119 224.822 432.336 232.208 432.336 232.208L430.352 234.287ZM502.904 263.885C502.956 264.323 509.116 264.104 509.899 263.885C510.681 263.666 518.719 257.539 522.425 253.6C526.131 249.715 533.595 245.393 534.378 244.353C535.161 243.314 531.038 241.454 531.038 241.454L528.114 237.952C528.114 237.952 528.114 243.478 528.114 244.299C528.114 245.119 527.541 247.8 523.782 249.66C520.076 251.521 520.076 253.38 514.178 253.545C508.28 253.764 502.852 261.369 502.852 261.369C502.852 261.369 502.852 263.448 502.904 263.885ZM450.134 124.317L447.785 126.779V132.47C447.785 132.47 449.404 134.932 450.866 136.299C452.326 137.667 454.623 139.199 454.623 139.199L455.72 137.338C455.72 137.338 455.406 135.807 453.058 133.345C450.709 130.883 451.126 130.445 451.753 128.257C452.379 126.068 450.134 124.317 450.134 124.317ZM464.227 68.512C464.227 68.512 463.497 72.2323 464.227 73.9284C464.958 75.6244 467.307 77.7582 467.62 78.8524C467.933 79.9466 465.741 84.5423 465.741 84.5423C465.741 84.5423 458.329 89.1924 458.172 90.2873C458.016 91.3813 456.867 95.0471 456.867 95.0471L458.329 99.2046C458.329 99.2046 464.697 93.9522 467.62 93.1865C470.543 92.4209 473.779 87.0043 473.779 87.0043C473.779 87.0043 471.43 81.9162 471.117 80.384C470.804 78.8524 468.611 76.8281 469.916 75.6244C471.221 74.3661 472.578 75.6244 472.265 73.4907C471.952 71.3569 468.142 70.2627 467.411 69.6609C466.732 69.0044 464.227 68.512 464.227 68.512ZM231.226 49.6914L232.322 50.7856C232.322 50.7856 231.278 52.6457 230.548 53.5758C229.817 54.5059 230.861 59.4299 230.861 59.4299L234.254 58.3357L239.786 54.7247V52.591C239.786 52.591 237.02 47.3388 236.133 46.1352C235.245 44.9315 231.957 40.8829 231.644 41.047C231.33 41.2111 228.356 43.2902 228.356 43.2902C228.356 43.2902 228.146 47.2294 227.155 47.8859C226.216 48.5971 221.153 51.4421 221.413 52.1533C221.727 52.8646 223.971 54.67 224.702 54.4512C225.432 54.2323 227.729 53.4664 227.886 53.1381C228.042 52.8099 229.138 49.9102 229.138 49.9102C229.765 50.3479 231.226 49.6914 231.226 49.6914Z" fill="#364E65"/>
</svg>
