<svg width="14" height="17" viewBox="0 0 14 17" fill="none" xmlns="http://www.w3.org/2000/svg">
<path fill-rule="evenodd" clip-rule="evenodd" d="M3.5 2.12497C3.5 1.22752 4.22752 0.5 5.12497 0.5H9.25C9.38261 0.5 9.50978 0.552678 9.60355 0.646447L13.3536 4.39645C13.4473 4.49021 13.5 4.61739 13.5 4.75V11.875C13.5 12.7725 12.7725 13.5 11.875 13.5H9.9375V14.875C9.9375 15.7725 9.20998 16.5 8.31253 16.5H2.12497C1.22752 16.5 0.5 15.7725 0.5 14.875V5.87497C0.5 4.97752 1.22752 4.25 2.12497 4.25H3.5V2.12497ZM3.5 5.25H2.12497C1.77981 5.25 1.5 5.52981 1.5 5.87497V14.875C1.5 15.2202 1.77981 15.5 2.12497 15.5H8.31253C8.65769 15.5 8.9375 15.2202 8.9375 14.875V13.5H5.12497C4.22752 13.5 3.5 12.7725 3.5 11.875V5.25ZM5.12497 1.5C4.77981 1.5 4.5 1.77981 4.5 2.12497V11.875C4.5 12.2202 4.77981 12.5 5.12497 12.5H11.875C12.2202 12.5 12.5 12.2202 12.5 11.875L12.5 5.24994H9.25C8.97386 5.24994 8.75 5.02608 8.75 4.74994V1.5H5.12497ZM9.75 2.20711L11.7928 4.24994H9.75V2.20711Z" fill="#EE4492"/>
</svg>
